<svg xmlns="http://www.w3.org/2000/svg" width="180" height="60" viewBox="0 0 180 60">
    <g fill="none" fill-rule="evenodd">
        <rect width="180" height="60" fill="#FFF" rx="7"/>
        <g fill="#000">
            <path d="M33.922 32.405c-.044-4.859 3.978-7.222 4.162-7.332-2.278-3.321-5.808-3.775-7.049-3.81-2.965-.313-5.84 1.773-7.351 1.773-1.54 0-3.867-1.744-6.373-1.693-3.226.05-6.244 1.918-7.9 4.818-3.415 5.914-.867 14.604 2.405 19.383 1.637 2.343 3.55 4.955 6.054 4.863 2.45-.1 3.364-1.561 6.32-1.561 2.929 0 3.788 1.561 6.342 1.501 2.629-.04 4.284-2.35 5.863-4.714 1.892-2.68 2.652-5.325 2.682-5.46-.06-.02-5.104-1.945-5.155-7.768M29.098 18.118c1.318-1.648 2.22-3.89 1.969-6.164-1.907.084-4.292 1.319-5.665 2.93-1.215 1.42-2.3 3.748-2.02 5.936 2.142.16 4.342-1.08 5.716-2.702"/>
        </g>
        <g fill="#000">
            <path d="M66.693 50.316h-3.28l-1.797-5.646h-6.245l-1.712 5.646h-3.193l6.189-19.221h3.821l6.217 19.221zm-5.619-8.014l-1.624-5.018c-.172-.514-.496-1.722-.97-3.623h-.057c-.191.818-.496 2.025-.913 3.623l-1.598 5.018h5.162zM82.578 43.216c0 2.357-.64 4.22-1.92 5.588-1.148 1.218-2.573 1.826-4.273 1.826-1.836 0-3.156-.655-3.958-1.968v7.273h-3.08V41.012c0-1.48-.038-2.999-.113-4.556h2.708l.172 2.199h.057c1.027-1.657 2.586-2.485 4.677-2.485 1.635 0 3 .646 4.092 1.939 1.09 1.295 1.638 2.997 1.638 5.107zm-3.137.112c0-1.349-.303-2.46-.913-3.336-.666-.911-1.56-1.37-2.68-1.37-.76 0-1.45.255-2.068.758-.618.504-1.022 1.164-1.211 1.983-.096.38-.143.69-.143.936v2.314c0 1.005.309 1.856.927 2.552.618.693 1.421 1.041 2.41 1.041 1.159 0 2.062-.45 2.707-1.34.647-.894.97-2.073.97-3.538zM98.52 43.216c0 2.357-.64 4.22-1.922 5.588-1.148 1.218-2.572 1.826-4.273 1.826-1.835 0-3.155-.655-3.958-1.968v7.273h-3.08V41.012c0-1.48-.038-2.999-.113-4.556h2.708l.172 2.199h.057c1.026-1.657 2.584-2.485 4.677-2.485 1.634 0 3 .646 4.094 1.939 1.089 1.295 1.637 2.997 1.637 5.107zm-3.14.112c0-1.349-.304-2.46-.913-3.336-.665-.911-1.557-1.37-2.678-1.37-.76 0-1.45.255-2.07.758-.617.504-1.021 1.164-1.21 1.983-.094.38-.145.69-.145.936v2.314c0 1.005.31 1.856.926 2.552.618.692 1.421 1.041 2.412 1.041 1.161 0 2.064-.45 2.708-1.34.647-.894.97-2.073.97-3.538zM116.343 44.926c0 1.635-.57 2.965-1.709 3.992-1.25 1.121-2.997 1.683-5.236 1.683-2.068 0-3.726-.399-4.977-1.198l.712-2.566c1.35.799 2.834 1.199 4.449 1.199 1.161 0 2.064-.263 2.708-.785.647-.524.972-1.222.972-2.094 0-.781-.269-1.437-.8-1.97-.533-.53-1.414-1.027-2.65-1.48-3.366-1.256-5.05-3.093-5.05-5.506 0-1.578.595-2.869 1.78-3.879 1.188-1.008 2.762-1.512 4.721-1.512 1.75 0 3.207.305 4.363.913l-.772 2.51c-1.09-.589-2.318-.884-3.694-.884-1.086 0-1.94.268-2.547.8-.513.474-.775 1.054-.775 1.741 0 .758.297 1.388.887 1.88.512.457 1.445.952 2.794 1.484 1.655.667 2.87 1.444 3.65 2.337.784.893 1.174 2.006 1.174 3.335M126.55 38.767h-3.394v6.73c0 1.711.598 2.565 1.797 2.565.55 0 1.006-.047 1.367-.143l.086 2.338c-.607.227-1.406.34-2.394.34-1.217 0-2.166-.372-2.854-1.113-.684-.742-1.027-1.986-1.027-3.736V38.76h-2.02v-2.31h2.02v-2.538l3.025-.913v3.45h3.394v2.317M141.834 43.272c0 2.13-.608 3.88-1.825 5.248-1.273 1.406-2.966 2.11-5.076 2.11-2.036 0-3.655-.675-4.863-2.024-1.207-1.349-1.811-3.05-1.811-5.103 0-2.148.625-3.907 1.867-5.275 1.245-1.367 2.924-2.053 5.034-2.053 2.035 0 3.667.677 4.905 2.025 1.181 1.31 1.77 2.998 1.77 5.072zm-3.192.07c0-1.269-.274-2.358-.824-3.27-.646-1.1-1.572-1.649-2.768-1.649-1.232 0-2.18.55-2.824 1.65-.553.911-.826 2.02-.826 3.328 0 1.27.273 2.363.826 3.27.666 1.102 1.595 1.652 2.8 1.652 1.175 0 2.098-.563 2.767-1.678.565-.933.85-2.03.85-3.302zM151.848 39.164a5.361 5.361 0 0 0-.97-.083c-1.084 0-1.922.405-2.51 1.226-.514.722-.77 1.635-.77 2.737v7.272h-3.079v-9.495c0-1.596-.03-3.053-.09-4.363h2.683l.113 2.652h.085c.326-.912.838-1.647 1.54-2.196.687-.497 1.427-.744 2.225-.744.285 0 .542.022.77.057l.003 2.937M165.62 42.73c0 .552-.036 1.017-.113 1.397h-9.236c.033 1.37.482 2.418 1.339 3.14.778.644 1.786.968 3.021.968 1.368 0 2.616-.217 3.738-.656l.483 2.138c-1.312.57-2.862.856-4.647.856-2.15 0-3.836-.632-5.064-1.895-1.223-1.263-1.838-2.963-1.838-5.09 0-2.088.569-3.829 1.713-5.217 1.195-1.481 2.812-2.222 4.845-2.222 1.998 0 3.51.74 4.536 2.222.814 1.175 1.223 2.63 1.223 4.36zm-2.936-.798c.021-.915-.18-1.7-.598-2.368-.533-.857-1.354-1.285-2.453-1.285-1.008 0-1.827.417-2.45 1.255-.514.666-.818 1.468-.912 2.395l6.413.003z"/>
        </g>
        <g fill="#000">
            <path d="M58.988 22.831h-1.684l-.921-2.895H53.18L52.3 22.83h-1.639l3.175-9.86h1.96l3.19 9.86zm-2.882-4.11l-.834-2.575c-.087-.264-.249-.877-.497-1.857h-.03c-.103.424-.25 1.039-.47 1.857l-.818 2.575h2.649zM66.926 15.722l-2.693 7.11h-1.536l-2.604-7.11h1.697l1.215 3.76c.205.628.38 1.228.51 1.798h.045c.117-.51.292-1.11.51-1.798l1.2-3.76h1.656M72.657 22.831l-.118-.818h-.044c-.482.658-1.184.98-2.077.98-1.272 0-2.18-.893-2.18-2.093 0-1.754 1.521-2.662 4.155-2.662v-.13c0-.937-.498-1.406-1.477-1.406-.703 0-1.318.177-1.857.528l-.322-1.039c.66-.41 1.478-.615 2.444-.615 1.857 0 2.795.98 2.795 2.941v2.618c0 .718.03 1.274.102 1.698l-1.421-.002zm-.22-3.54c-1.757 0-2.634.425-2.634 1.433 0 .746.454 1.11 1.082 1.11.805 0 1.552-.613 1.552-1.446V19.29zM77.494 14.551a.928.928 0 0 1-.936-.95c0-.542.423-.937.966-.937.541 0 .98.395.965.936 0 .571-.409.951-.995.951zm-.76 1.171h1.58v7.11h-1.58v-7.11zM81.12 12.46h1.58v10.371h-1.58zM89.414 22.831l-.119-.818h-.042c-.482.658-1.185.98-2.077.98-1.272 0-2.18-.893-2.18-2.093 0-1.754 1.521-2.662 4.154-2.662v-.13c0-.937-.497-1.406-1.477-1.406-.702 0-1.317.177-1.857.528l-.322-1.04c.658-.41 1.477-.615 2.443-.615 1.857 0 2.796.98 2.796 2.94v2.619c0 .717.03 1.274.1 1.697h-1.419zm-.22-3.54c-1.756 0-2.633.425-2.633 1.433 0 .746.453 1.11 1.082 1.11.805 0 1.551-.613 1.551-1.446V19.29zM97.132 22.993c-1.008 0-1.753-.426-2.237-1.26h-.03l-.09 1.098H93.43a26.5 26.5 0 0 0 .057-1.916v-8.454h1.583v4.302h.029c.468-.79 1.228-1.185 2.267-1.185 1.712 0 2.912 1.463 2.912 3.598 0 2.207-1.333 3.817-3.146 3.817zm-.321-6.175c-.909 0-1.741.79-1.741 1.888v1.243c0 .98.748 1.785 1.712 1.785 1.184 0 1.889-.965 1.889-2.5-.001-1.434-.734-2.416-1.86-2.416zM102.616 12.46h1.578v10.371h-1.578zM112.792 19.657h-4.742c.032 1.346.92 2.106 2.237 2.106.704 0 1.347-.118 1.917-.337l.246 1.098c-.672.292-1.462.438-2.383.438-2.225 0-3.541-1.404-3.541-3.583 0-2.18 1.348-3.818 3.364-3.818 1.812 0 2.956 1.346 2.956 3.38.005.277-.009.526-.054.716zm-1.447-1.126c0-1.098-.558-1.872-1.568-1.872-.907 0-1.622.79-1.727 1.872h3.295zM122.367 22.993c-2.077 0-3.423-1.552-3.423-3.657 0-2.195 1.374-3.76 3.542-3.76 2.046 0 3.423 1.477 3.423 3.644 0 2.221-1.42 3.773-3.542 3.773zm.06-6.262c-1.14 0-1.872 1.067-1.872 2.56 0 1.463.746 2.53 1.857 2.53s1.857-1.14 1.857-2.56c0-1.448-.73-2.53-1.842-2.53zM134.402 22.831h-1.577V18.75c0-1.257-.484-1.887-1.435-1.887-.936 0-1.581.805-1.581 1.741v4.228h-1.577v-5.077c0-.628-.018-1.302-.06-2.033h1.39l.074 1.097h.045c.42-.76 1.286-1.243 2.252-1.243 1.49 0 2.469 1.14 2.469 2.998v4.258M144.738 16.907H143v3.452c0 .879.306 1.318.92 1.318.277 0 .514-.03.702-.074l.044 1.2c-.308.117-.72.176-1.227.176-1.247 0-1.989-.687-1.989-2.487v-3.585h-1.035v-1.185h1.035V14.42l1.55-.469v1.77h1.738v1.186M153.104 22.831h-1.581V18.78c0-1.272-.484-1.915-1.434-1.915-.818 0-1.578.556-1.578 1.682v4.285h-1.581v-10.37h1.581v4.27h.03c.496-.775 1.215-1.156 2.136-1.156 1.506 0 2.427 1.17 2.427 3.028v4.228M161.176 19.657h-4.74c.03 1.346.919 2.106 2.236 2.106a5.3 5.3 0 0 0 1.915-.337l.247 1.098c-.67.292-1.462.438-2.385.438-2.223 0-3.54-1.404-3.54-3.583 0-2.18 1.347-3.818 3.364-3.818 1.813 0 2.956 1.346 2.956 3.38.006.277-.01.526-.053.716zm-1.449-1.126c0-1.098-.554-1.872-1.564-1.872-.908 0-1.624.79-1.728 1.872h3.292z"/>
        </g>
    </g>
</svg>
