<svg xmlns="http://www.w3.org/2000/svg" width="180" height="60" viewBox="0 0 180 60">
    <defs>
        <linearGradient id="a" x1="58.917%" x2="90.81%" y1="9.59%" y2="60.851%">
            <stop offset="0%" stop-color="#FF177B"/>
            <stop offset="100%" stop-color="#FFEC73"/>
        </linearGradient>
        <linearGradient id="b" x1="37.103%" x2="0%" y1="-44.035%" y2="101.06%">
            <stop offset="0%" stop-color="#064AA2"/>
            <stop offset="100%" stop-color="#63FFD4"/>
        </linearGradient>
        <linearGradient id="c" x1="78.645%" x2="2.495%" y1="50%" y2="100%">
            <stop offset="0%" stop-color="#FF4521"/>
            <stop offset="100%" stop-color="#8A33DB"/>
        </linearGradient>
        <linearGradient id="d" x1="0%" x2="64.224%" y1="-24.186%" y2="100%">
            <stop offset="0%" stop-color="#00A3B5"/>
            <stop offset="100%" stop-color="#D6FFA1"/>
        </linearGradient>
    </defs>
    <g fill="none" fill-rule="evenodd">
        <rect width="180" height="60" fill="#000" rx="7"/>
        <path fill="url(#a)" d="M17.41 9.356L2.638 1.213C1.817.76 1 1.035 1 1.979V35.153c0 .707.584 1.013 1.297.621l15.113-8.332 2.934-1.617 4.723-2.602s6.497-3.582 7.361-4.057c.863-.477.78-1.13.052-1.505-.73-.375-7.413-4.085-7.413-4.085l-7.657-4.22z" transform="translate(7 11)"/>
        <path fill="url(#b)" d="M19 17.363L.683 0C.256.1 0 .419 0 .957V34.18c0 .456.184.728.41.82L19 17.363z" transform="translate(8 11)"/>
        <path d="M32.068 23.53l-7.658-4.223c-.027.062-13.957-7.641-14.769-8.035C8.815 10.76 8 11.035 8 11.953v33.229c0 .731.583 1.038 1.23.682.775-.43 15.153-8.381 15.18-8.444l7.658-4.222c-.04.06 6.447-3.529 7.248-3.949.924-.532.841-1.186.137-1.498-.751-.44-7.424-4.155-7.385-4.222"/>
        <path d="M8.77 46.925l10.605-5.796 4.684-2.582 7.712-4.133-5.134-4.964-18.62 17.576c.207.066.572.03.858-.11"/>
        <path fill="url(#c)" d="M16.43-9.69c-.027.061-13.974-7.644-14.787-8.038C.816-18.24 0-17.965 0-17.046V16.193c0 .73.583 1.038 1.232.681.776-.429 15.171-8.383 15.198-8.446l7.667-4.223c-.04.059 6.455-3.53 7.257-3.95.925-.533.842-1.187.137-1.499-.752-.44-7.434-4.157-7.394-4.223L16.43-9.69z" transform="translate(7.983 29.504)"/>
        <g>
            <path fill="url(#d)" d="M.988.2C.635.01.284-.044 0 .032L18.362 17.36l5.08-4.783-7.657-4.22L4.21 1.976.988.198z" transform="translate(8.98 12)"/>
            <path d="M32.077 24.533l-7.668-4.223c-.027.061-13.974-7.644-14.787-8.038-.826-.512-1.643-.237-1.643.682V46.193c0 .73.584 1.038 1.233.681.775-.429 15.17-8.383 15.197-8.446l7.668-4.223c-.04.059 6.454-3.53 7.256-3.95.925-.533.842-1.187.137-1.499-.752-.44-7.433-4.157-7.393-4.223"/>
        </g>
        <g fill="#FFF">
            <path d="M122.956 44.95l-1.269 1.126c-.293.152-.585.328-.876.453-.881.376-1.777.471-2.574.471-.847 0-2.176-.052-3.531-.974-1.883-1.247-2.706-3.392-2.706-5.26 0-3.869 3.348-5.766 6.08-5.766.954 0 1.934.225 2.731.699 1.326.824 1.669 1.896 1.859 2.47l-6.237 2.37-2.042.149c.66 3.172 2.942 5.017 5.464 5.017 1.259 0 2.194-.387 3.051-.786 0 0 .173-.084.05.031zm-3.81-6.363c.5-.174.76-.325.76-.675 0-1.003-1.185-2.162-2.6-2.162-1.047 0-3.014.782-3.014 3.496 0 .423.053.874.079 1.325l4.774-1.984zM109.593 45.09c0 .991.184 1.145 1.054 1.223.454.052.906.074 1.353.126l-.98.561h-4.666c.612-.765.717-.841.717-1.35v-.57l-.01-15.16H105l1.984-.92h3.787c-.82.458-1.066.737-1.172 1.63l-.006 14.46"/>
            <path d="M102.967 35.949c.552.495 1.704 1.547 1.704 3.541 0 1.944-1.004 2.86-2.017 3.727-.31.342-.673.712-.673 1.284 0 .581.363.896.624 1.131l.869.732c1.056.973 2.018 1.865 2.018 3.678 0 2.468-2.189 4.958-6.324 4.958C95.684 55 94 53.189 94 51.246c0-.945.431-2.283 1.853-3.2 1.49-.995 3.51-1.128 4.59-1.206-.337-.476-.722-.974-.722-1.788 0-.445.122-.71.24-1.023-.262.028-.527.056-.768.056-2.55 0-3.991-2.077-3.991-4.124 0-1.207.504-2.546 1.54-3.517 1.37-1.232 3.005-1.444 4.304-1.444H106l-1.54.949h-1.493zm-1.692 11.622c-.199-.029-.318-.029-.558-.029-.22 0-1.529.053-2.543.428-.536.216-2.087.855-2.087 2.753 0 1.894 1.674 3.26 4.264 3.26 2.327 0 3.562-1.23 3.562-2.885 0-1.363-.8-2.082-2.638-3.527zm.68-5.055c.553-.604.602-1.438.602-1.912 0-1.882-1.027-4.813-3.017-4.813-.62 0-1.293.34-1.675.867-.405.545-.526 1.252-.526 1.932 0 1.752.935 4.659 2.992 4.659.6 0 1.245-.32 1.624-.733zM85.879 47C82.049 47 80 43.898 80 41.09c0-3.282 2.576-6.09 6.24-6.09 3.542 0 5.76 2.884 5.76 5.913C92 43.87 89.807 47 85.879 47zm2.995-2.029c.584-.804.726-1.808.726-2.787 0-2.213-1.014-6.434-4.013-6.434-.797 0-1.6.324-2.179.853-.944.88-1.112 1.984-1.112 3.069 0 2.483 1.18 6.578 4.11 6.578.946 0 1.91-.476 2.468-1.279zM71.878 47C68.046 47 66 43.898 66 41.09c0-3.282 2.578-6.09 6.242-6.09C75.783 35 78 37.884 78 40.913 78 43.87 75.81 47 71.878 47zm2.997-2.029c.58-.804.725-1.808.725-2.787 0-2.213-1.018-6.434-4.014-6.434-.801 0-1.596.324-2.177.853-.946.88-1.113 1.984-1.113 3.069 0 2.483 1.186 6.578 4.112 6.578.944 0 1.908-.476 2.467-1.279zM65.063 46.78l-3.541.8c-1.435.224-2.724.42-4.088.42C50.603 48 48 43.034 48 39.147 48 34.401 51.688 30 58.004 30c1.336 0 2.621.194 3.792.51 1.856.514 2.724 1.15 3.267 1.521l-2.057 1.93-.868.192.619-.974c-.838-.808-2.378-2.3-5.3-2.3-3.907 0-6.854 2.934-6.854 7.217 0 4.6 3.365 8.926 8.763 8.926 1.586 0 2.402-.315 3.143-.609V42.47l-3.74.199 1.983-1.051H66l-.642.61c-.173.145-.196.194-.245.39-.026.222-.05.93-.05 1.18v2.981M130.314 45.438V52H129V35.302h1.314v1.901c.855-1.229 2.419-2.203 4.235-2.203 3.257 0 5.451 2.452 5.451 6.332 0 3.855-2.194 6.358-5.451 6.358-1.715 0-3.25-.877-4.235-2.252zm8.34-4.006c0-2.955-1.543-5.21-4.278-5.21-1.699 0-3.323 1.333-4.03 2.496v5.402c.707 1.165 2.331 2.547 4.03 2.547 2.735 0 4.277-2.274 4.277-5.235zM142 31h2v17h-2zM159.31 50.622c.286.125.774.201 1.084.201.818 0 1.387-.326 1.899-1.478l.976-2.154L158 35h1.492l4.52 10.565L168.486 35H170l-6.426 14.75c-.667 1.52-1.716 2.25-3.157 2.25-.432 0-1.003-.075-1.336-.175l.23-1.203M155.396 46.774c-.093-.4-.163-.752-.215-1.045a6.265 6.265 0 0 1-.067-.898c-.477.625-1.153 1.145-2.016 1.554-.865.413-1.686.615-2.812.615-1.357 0-2.41-.297-3.16-.901-.75-.603-1.126-1.42-1.126-2.454 0-1.032.546-1.87 1.634-2.51 1.087-.644 2.493-.964 4.234-.964h3.246v-1.43c0-.825-.314-1.473-.943-1.943-.631-.47-1.517-.708-2.665-.708-1.05 0-1.901.217-2.55.64-.642.432-.966.968-.966 1.613h-1.425l-.03-.062c-.05-.87.396-1.633 1.344-2.292.944-.658 2.182-.989 3.704-.989 1.518 0 2.746.326 3.672.976.925.644 1.389 1.574 1.389 2.79v5.681c0 .408.022.802.079 1.186.058.385.152.77.277 1.14h-1.604zm-4.943-.827c1.182 0 2.03-.237 2.899-.705.862-.466 1.448-1.073 1.756-1.809v-2.222h-3.26c-1.245 0-2.276.247-3.086.745-.813.497-1.224 1.1-1.224 1.799 0 .66.26 1.188.779 1.588.52.404 1.23.604 2.136.604z"/>
        </g>
        <g fill="#FFF">
            <path d="M47 15.822C47 12.888 49.355 11 52.284 11c1.962 0 3.246.867 4.046 1.929l-1.434.769c-.543-.7-1.495-1.243-2.612-1.243-1.992 0-3.472 1.396-3.472 3.367 0 1.942 1.48 3.367 3.472 3.367 1.027 0 1.932-.433 2.385-.838v-1.44h-3.02v-1.44h4.771v3.48c-.98 1.021-2.4 1.706-4.136 1.706-2.929 0-5.284-1.914-5.284-4.835M58 20.373V11h6.994v1.448H59.79v2.416h5.096v1.448H59.79v2.613h5.203v1.448H58M70.044 20.373v-7.925H67V11h7.85v1.448h-3.043v7.925h-1.763M81 11h1.713v9.373H81zM88.044 20.373v-7.925H85V11h7.85v1.448h-3.042v7.925h-1.764M98 15.829c0-2.786 2.154-4.829 5.21-4.829 3.04 0 5.21 2.043 5.21 4.829 0 2.785-2.17 4.828-5.21 4.828-3.056 0-5.21-2.043-5.21-4.828zm8.564-.072c0-1.91-1.32-3.337-3.354-3.337-2.049 0-3.354 1.426-3.354 3.337 0 1.897 1.305 3.338 3.354 3.338 2.034 0 3.354-1.44 3.354-3.338zM118.004 20.373l-5.242-6.703v6.703H111V11h1.808l5.136 6.493V11h1.763v9.373h-1.703"/>
        </g>
    </g>
</svg>
