<svg xmlns="http://www.w3.org/2000/svg" width="243" height="47" viewBox="0 0 243 47">
    <path fill="#F91429" fill-rule="evenodd" d="M32.436 0c.073.008.368.06.885.153.516.093.904.14 1.165.14.179 0 .4-.016.665-.049.264-.032.508-.069.732-.11.224-.04.494-.085.812-.134.423 3.612.858 7.379 1.305 11.3.448 3.922.78 6.781.995 8.58.215 1.797.51 4.008.885 6.632.374 2.623.776 5.196 1.208 7.718a82.915 82.915 0 0 1-2.105-.11 36.84 36.84 0 0 0-2.093-.085c-.472 0-1.14.028-2.001.085-.863.057-1.53.094-2.002.11a170.31 170.31 0 0 0-.384-5.82c-.167-2.018-.338-3.85-.512-5.498a9057.14 9057.14 0 0 0-.55-5.15c-.19-1.786-.425-4.025-.701-6.718-.627 1.27-1.518 3.067-2.673 5.394a590.508 590.508 0 0 0-2.96 6.034 876.26 876.26 0 0 0-2.897 6.084 587.876 587.876 0 0 0-2.563 5.479h-1.904a279.68 279.68 0 0 0-2.544-5.363 739.818 739.818 0 0 0-2.685-5.504 2811.191 2811.191 0 0 1-5.717-11.624C5.512 21.43 4.812 28.991 4.698 34.23a27.86 27.86 0 0 1-1.171-.11c-.521-.057-.912-.085-1.172-.085-.268 0-.653.028-1.153.085-.5.057-.901.094-1.202.11.838-4.523 1.623-9.3 2.355-14.332S4.02 8.233 5.15 0c.309.049.57.094.78.134.212.041.436.078.672.11.236.033.435.05.598.05.154 0 .36-.017.616-.05.256-.032.486-.069.69-.11.203-.04.451-.085.744-.134a481.07 481.07 0 0 0 2.703 5.705c.687 1.42 1.597 3.27 2.727 5.553 1.131 2.281 2.215 4.454 3.253 6.516 1.037 2.063 1.99 3.968 2.861 5.717l2.233-4.338c1.237-2.404 2.394-4.668 3.472-6.79a358.73 358.73 0 0 0 3.167-6.395A198.627 198.627 0 0 0 32.436 0zm18.277 22.54c0 1.334.148 2.766.445 4.295.297 1.53.832 2.854 1.605 3.972.773 1.119 1.822 1.678 3.149 1.678 1.79-.049 3.138-1.239 4.045-3.57.907-2.33 1.36-5.058 1.36-8.182 0-2.562-.439-4.694-1.317-6.394-.88-1.7-2.124-2.55-3.735-2.55-1.92 0-3.325.986-4.216 2.959-.89 1.973-1.336 4.57-1.336 7.791zm-7.395.146c0-1.944.297-3.726.89-5.345.595-1.619 1.449-3.008 2.563-4.167a11.197 11.197 0 0 1 3.99-2.66c1.546-.615 3.263-.922 5.15-.922 2.514 0 4.741.482 6.682 1.446 1.94.964 3.445 2.353 4.515 4.167 1.07 1.815 1.605 3.942 1.605 6.383 0 2.522-.53 4.781-1.587 6.778-1.057 1.998-2.554 3.558-4.49 4.68-1.937 1.123-4.178 1.684-6.724 1.684-2.45 0-4.63-.49-6.541-1.47-1.912-.98-3.399-2.384-4.46-4.21-1.062-1.827-1.593-3.948-1.593-6.364zM74.685 1.39c2.619 2.465 5.4 3.698 8.344 3.698 2.968 0 5.834-1.233 8.6-3.698l1.598 2.144a14.885 14.885 0 0 1-4.782 3.16 14.274 14.274 0 0 1-5.464 1.09 13.68 13.68 0 0 1-5.238-1.053c-1.712-.702-3.28-1.748-4.702-3.136l1.644-2.205zm4.252 23.894c3.002-3.783 6.398-8.847 10.19-15.193.162 0 .544.023 1.147.067.601.045 1.085.067 1.452.067.569 0 1.403-.044 2.501-.134V34.23a72.41 72.41 0 0 1-1.69-.11 26.232 26.232 0 0 0-1.763-.085c-.765 0-1.912.065-3.442.195V18.842A117.92 117.92 0 0 0 77.14 34.23c-.163 0-.529-.033-1.098-.097a12.77 12.77 0 0 0-1.402-.098c-.341 0-1.207.065-2.597.195V10.092c1.543.122 2.692.183 3.448.183.836 0 1.985-.06 3.447-.183v15.193zm49.579 5.955c1.716 0 2.981-.118 3.795-.354 1.545-.43 2.715-1.263 3.508-2.495.793-1.233 1.19-2.666 1.19-4.302 0-1.944-.484-3.53-1.452-4.759-.968-1.228-2.115-1.843-3.441-1.843h-3.6V31.24zm0-27.64v11.142h5.296c2.327 0 4.308.313 5.943.94 1.635.626 2.877 1.567 3.728 2.824.85 1.257 1.275 2.817 1.275 4.68 0 7.233-4.395 10.849-13.185 10.849h-10.55V0h22.088a9.646 9.646 0 0 0-.257 2.148c0 .683.086 1.4.257 2.148-3.458-.464-8.323-.696-14.595-.696zM154.9 34.084l-10.092-23.992c.537.033 1.01.063 1.421.092.41.028.804.053 1.178.073a21.385 21.385 0 0 0 1.99.012c.316-.012.66-.032 1.03-.06.37-.03.685-.052.946-.068.26-.016.602-.032 1.025-.049 1.627 4.548 3.628 9.714 6.004 15.498l1.904-5.1c.243-.668.811-2.183 1.702-4.547.89-2.362 1.588-4.313 2.093-5.85.927.064 1.61.097 2.05.097.423 0 1.106-.033 2.05-.098l-5.052 11.398c-4.271 9.746-7.737 18.244-10.397 25.492-.464-.097-1.164-.146-2.1-.146-.935 0-1.635.049-2.098.146l6.346-12.898zm15.555-23.992c1.283.163 2.432.244 3.447.244 1.015 0 2.164-.08 3.448-.244v10.641c.097.041.244.061.44.061 1-1.017 1.986-2.06 2.958-3.13.972-1.07 1.981-2.207 3.027-3.41 1.045-1.204 2.251-2.592 3.618-4.162.227.017.417.035.567.055.15.02.33.043.537.067.207.025.403.043.586.055.183.012.335.018.457.018.123 0 .273-.006.452-.018.179-.012.366-.03.561-.055.196-.024.368-.046.519-.067.15-.02.34-.038.567-.055v.305a35.905 35.905 0 0 1-1.958 2.233c-.704.74-1.491 1.536-2.361 2.386-.871.85-1.613 1.589-2.227 2.215a43.004 43.004 0 0 0-1.85 2.014l4.052 6.345a196.17 196.17 0 0 1 4.894 8.298v.342a81.405 81.405 0 0 1-1.916-.11 32.128 32.128 0 0 0-1.88-.085c-.447 0-1.092.028-1.934.085-.842.057-1.462.094-1.86.11-2.23-4.132-4.182-7.448-5.858-9.946-.44-.707-.903-1.24-1.391-1.598V34.23a55.175 55.175 0 0 1-1.767-.11 25.215 25.215 0 0 0-1.68-.085c-.382 0-.955.028-1.718.085a59.02 59.02 0 0 1-1.73.11V10.092zm36.826 9.702c0-1.912-.27-3.724-.812-5.437-.54-1.712-1.454-2.569-2.74-2.569-1.586 0-2.684.82-3.294 2.46-.61 1.639-.964 3.488-1.062 5.546h7.908zm-7.908 2.404c0 2.843.627 5.102 1.88 6.776 1.252 1.674 3.111 2.51 5.576 2.51.977 0 1.997-.209 3.063-.628 1.066-.419 1.994-.958 2.783-1.617l.549.454-1.05 2.792c-1 .691-2.137 1.239-3.41 1.641-1.274.403-2.52.604-3.74.604-2.035 0-3.865-.298-5.492-.897-1.627-.597-3.004-1.468-4.13-2.611-1.128-1.143-1.98-2.524-2.557-4.143-.578-1.619-.867-3.45-.867-5.491 0-1.741.27-3.352.812-4.833.54-1.48 1.322-2.756 2.343-3.826 1.02-1.07 2.253-1.893 3.697-2.47 1.444-.578 3.061-.867 4.85-.867 6.997 0 10.496 4.202 10.496 12.606h-14.803zm29.601-9.201V34.23c-.382 0-.956-.033-1.72-.097a22.095 22.095 0 0 0-1.733-.098c-.383 0-.956.032-1.721.098a22.35 22.35 0 0 1-1.72.097V12.997c-1.384 0-2.458.018-3.222.055-.765.036-1.658.105-2.679.207-1.02.102-1.605.16-1.75.177 0-.147.04-.42.121-.818.081-.398.122-.691.122-.878 0-.187-.04-.468-.122-.842-.081-.375-.122-.643-.122-.806H236.674c0 .195-.042.472-.128.83-.085.358-.128.63-.128.818 0 .187.043.468.128.842.086.374.128.659.128.854-.146-.016-.73-.075-1.751-.177a52.658 52.658 0 0 0-2.697-.207 73.488 73.488 0 0 0-3.252-.055zm10.158 15.626c0-.308-.079-.54-.237-.693a.73.73 0 0 0-.517-.232h-.377a34.971 34.971 0 0 0-.024 1.12v.887c.08 0 .186-.006.316-.018.13-.012.257-.05.383-.116a.819.819 0 0 0 .322-.322c.09-.15.134-.359.134-.626zm1.52 3.685a43.037 43.037 0 0 1-.328-.024 4.296 4.296 0 0 0-.656 0l-.329.024c-.316-.568-.56-1.007-.73-1.32-.17-.312-.296-.54-.377-.687a1.728 1.728 0 0 0-.158-.255c-.024-.025-.044-.037-.06-.037-.025 0-.04.01-.043.03-.004.021-.006.076-.006.165a29.548 29.548 0 0 0 .024 1.216c.008.203.016.383.024.541.008.158.017.27.025.335l-.28-.025a3.625 3.625 0 0 0-.572 0l-.291.025c0-.04.003-.12.012-.237.008-.118.016-.284.024-.5a48.89 48.89 0 0 0 .036-1.976c0-.372-.002-.687-.006-.942a21.55 21.55 0 0 0-.042-1.058c-.008-.11-.016-.2-.024-.274a18.687 18.687 0 0 0 .948.025c.113 0 .251-.005.414-.013.162-.007.36-.012.596-.012.437 0 .784.114 1.04.34.255.228.382.524.382.889a1.2 1.2 0 0 1-.346.875 1.437 1.437 0 0 1-.833.426l1.557 2.469zm1.715-2.408c0-.535-.1-1.036-.304-1.502a3.93 3.93 0 0 0-.827-1.223 3.93 3.93 0 0 0-1.222-.827 3.729 3.729 0 0 0-1.502-.303c-.535 0-1.036.101-1.502.303a3.924 3.924 0 0 0-1.222.827 3.919 3.919 0 0 0-.827 1.223 3.725 3.725 0 0 0-.304 1.502c0 .535.101 1.036.304 1.502.202.466.478.873.827 1.222.348.349.756.625 1.222.827.466.203.967.304 1.502.304s1.036-.101 1.502-.304a3.922 3.922 0 0 0 1.222-.827c.349-.349.625-.756.827-1.222.203-.466.304-.967.304-1.502zm-8.209 0a4.362 4.362 0 0 1 1.27-3.083 4.367 4.367 0 0 1 6.167 0 4.37 4.37 0 0 1 1.271 3.083c0 .608-.113 1.176-.34 1.702a4.314 4.314 0 0 1-.93 1.375c-.394.389-.856.693-1.387.912a4.408 4.408 0 0 1-1.697.328c-.6 0-1.166-.11-1.697-.328a4.25 4.25 0 0 1-2.316-2.287 4.254 4.254 0 0 1-.34-1.702z"/>
</svg>
