<svg xmlns="http://www.w3.org/2000/svg" width="41" height="41" viewBox="0 0 41 41">
    <path fill="#B6BBC2" fill-rule="nonzero" d="M33.347 24L36 29.23h-2.4V41H8.4V29.23H6L8.653 24h24.694zm-.82 1.308H22.073l1.327 2.615h10.454l-1.327-2.615zm-23.054 0l-1.327 2.615H18.6l1.327-2.615H9.473zm22.801 14.384V29.231H22.58l-.917-1.808v5.73h-1.326v-5.73l-.917 1.808H9.726v10.461h10.61v-4.577h1.327v4.577h10.611zM11 35h4v1h-4v-1zm0 2h4v1h-4v-1zm5 0h1v1h-1v-1zm.894-26l-.244-3.34L15 4.84l2.918-1.264L20 1l2.082 2.576L25 4.84l-1.65 2.82-.243 3.34L20 10.206 16.894 11zm1.863-6.321l-1.828.792 1.04 1.78.15 2.047L20 8.818l1.882.48.15-2.047 1.04-1.779-1.828-.792L20 3.14 18.757 4.68zm-11.74 7.316L6.872 14 5 13.523l-1.871.476-.146-2.005L2 10.313l1.742-.756L5 8l1.258 1.558L8 10.314l-.983 1.68zM5.69 11.58l.37-.632-.645-.28L5 10.155l-.415.513-.645.28.37.633.052.706.638-.163.639.163.051-.706zm32.327.414L37.872 14 36 13.523l-1.871.476-.146-2.005L33 10.313l1.742-.756L36 8l1.258 1.558 1.742.756-.983 1.68zm-1.327-.414l.37-.632-.645-.28-.415-.514-.415.513-.645.28.37.633.052.706.638-.163.639.163.051-.706zm-28.236 3.81L8 15.054 9.81 11l.59.497c1.703 1.43 2.83 3.607 3.094 5.972L14 22l-2.445-3.422a14.413 14.413 0 0 0-3.101-3.186zm1.779-2.247l-.645 1.445c.975.788 1.86 1.702 2.639 2.728-.243-1.594-.95-3.066-1.994-4.173zm17.273 4.326c.263-2.366 1.392-4.542 3.093-5.972l.592-.498L33 15.052l-.453.34a14.427 14.427 0 0 0-3.102 3.185L27 22l.506-4.53zm3.907-2.88l-.645-1.445c-1.044 1.106-1.751 2.579-1.995 4.172a15.708 15.708 0 0 1 2.64-2.727zM23 22v-2.697c0-3.392 1.098-6.696 3.092-9.303l.908.824c-1.818 2.376-2.818 5.386-2.818 8.479V22H23zm5-14h1v1h-1V8zm2-3h1v1h-1V5zM16.818 22v-2.697c0-3.093-1-6.103-2.818-8.479l.908-.824C16.902 12.607 18 15.91 18 19.303V22h-1.182zM12 8h1v1h-1V8zm-2-3h1v1h-1V5zm10 6h1v1h-1v-1zm0 3h1v9h-1v-9zm19 4h1v1h-1v-1zm0 3h1v1h-1v-1zm1-2h1v1h-1v-1zm-3 0h1v1h-1v-1zm0-19h1v1h-1V0zm0 3h1v1h-1V3zm1-2h1v1h-1V1zm-3 0h1v1h-1V1zM1 21h1v1H1v-1zm0 2h1v1H1v-1zm2-1h1v1H3v-1zm-3 0h1v1H0v-1zM1 0h1v1H1V0zm0 3h1v1H1V3zm2-2h1v1H3V1zM0 1h1v1H0V1z"/>
</svg>
